# xmcd
#
# Track frame offsets:
#	150
#	12701
#	27045
#	37948
#	54894
#	66893
#	80317
#	93591
#	109429
#	121972
#
# Disc length: 1841 seconds
#
# Revision: 0
# Processed by: cddbd v1.5.1PL0 Copyright (c) Steve Scherf et al.
# Submitted via: dBpowerAMP V4.0
#
DISCID=7a072f0a
DTITLE=Merle Haggard - The Roots Of My Rasing
DYEAR=1976
DGENRE=Country
TTITLE0=The Roots Of My Raising 
TTITLE1=What Have You Got Planned Tonight Diana 
TTITLE2=The Waltz You Saved For Me 
TTITLE3=Walk On The Outside 
TTITLE4=Gamblin' Polka Dot Blues 
TTITLE5=Cherokee Maiden 
TTITLE6=Am I Standing In Your Way
TTITLE7=Colorado 
TTITLE8=I Never Go Around Mirrors 
TTITLE9=Mississippi Delta Blues 
EXTD=by Sound_Man73
EXTT0=
EXTT1=
EXTT2=
EXTT3=
EXTT4=
EXTT5=
EXTT6=
EXTT7=
EXTT8=
EXTT9=
PLAYORDER=
